HIERARCHY
ROOT Hips
{
	OFFSET 0.000000 0.000000 0.000000 
	CHANNELS 6 Xposition Yposition Zposition Yrotation Zrotation Xrotation 
	JOINT Lumbar
	{
		OFFSET 0.000000 0.000000 0.000000 
		CHANNELS 3 Zrotation Xrotation Yrotation
		JOINT Neck
		{
			OFFSET 0.000000 0.445665 0.000000 
			CHANNELS 3 Zrotation Xrotation Yrotation
			End Site
			{
				OFFSET 0.000000 0.227535 0.000000 
			}
		}
		JOINT RightShoulder
		{
			OFFSET 0.019635 0.377685 0.194865 
			CHANNELS 3 Zrotation Xrotation Yrotation
			JOINT RightElbow
			{
				OFFSET 0.000000 -0.243375 0.000000 
				CHANNELS 2 Zrotation Yrotation
				JOINT RightWrist
				{
					OFFSET 0.000000 -0.264825 0.000000 
					CHANNELS 2 Zrotation Xrotation
					End Site
					{
						OFFSET 0.006600 -0.176220 0.000990 
					}
				}
			}
		}
		JOINT LeftShoulder
		{
			OFFSET 0.019635 0.377685 -0.194865 
			CHANNELS 3 Zrotation Xrotation Yrotation
			JOINT LeftElbow
			{
				OFFSET 0.000000 -0.243375 0.000000 
				CHANNELS 2 Zrotation Yrotation
				JOINT LeftWrist
				{
					OFFSET 0.000000 -0.264825 0.000000 
					CHANNELS 2 Zrotation Xrotation
					End Site
					{
						OFFSET 0.006600 -0.176220 -0.000990 
					}
				}
			}
		}
	}
	JOINT RightHip
	{
		OFFSET 0.052140 -0.069960 0.075570 
		CHANNELS 3 Zrotation Xrotation Yrotation
		JOINT RightKnee
		{
			OFFSET 0.000000 -0.402270 0.000000 
			CHANNELS 1 Zrotation
			JOINT RightAnkle
			{
				OFFSET 0.000000 -0.404085 0.000000 
				CHANNELS 3 Zrotation Xrotation Yrotation
				End Site
				{
					OFFSET 0.204105 -0.089430 0.008415 
				}
			}
		}
	}
	JOINT LeftHip
	{
		OFFSET 0.052140 -0.069960 -0.075570 
		CHANNELS 3 Zrotation Xrotation Yrotation
		JOINT LeftKnee
		{
			OFFSET 0.000000 -0.402270 0.000000 
			CHANNELS 1 Zrotation
			JOINT LeftAnkle
			{
				OFFSET 0.000000 -0.404085 0.000000 
				CHANNELS 3 Zrotation Xrotation Yrotation
				End Site
				{
					OFFSET 0.204105 -0.089430 -0.008415 
				}
			}
		}
	}
}
MOTION
Frames: 14
Frame Time: 0.02
0 0.95578 -0 179.0991 0 2.49593 5.63197 0.91811 0.34641 -17.57774 3.33286 2.0264 10.79672 -14.41795 -3.14113 11.61065 80.87196 0.43224 1.17023 10.01973 8.32461 16.03576 7.9457 -78.51532 -10.1993 3.07319 2.33696 4.41443 22.50052 -19.82948 10.63083 -9.37022 -11.80319 0.70684 -4.36973 -11.48468 -14.0762 7.57291 7.78674 12.34929
-4e-05 0.9559 0.00079 179.77956 0 2.54014 5.69758 0.95648 0.12614 -17.51257 3.34479 1.82097 10.7375 -14.53794 -3.19213 11.42954 80.95506 0.42001 1.26875 10.14502 7.86495 19.01869 7.52741 -76.34435 -10.01032 2.67426 2.26727 4.30611 21.95115 -19.76007 10.64082 -9.45471 -11.93241 0.78433 -4.45622 -11.97935 -14.052 7.49064 7.71257 12.23901
-9e-05 0.95601 0.00157 180.45634 0 2.58409 5.76298 0.99467 -0.09202 -17.44771 3.35587 1.61727 10.67764 -14.65685 -3.24507 11.24916 81.03749 0.40745 1.36648 10.26929 7.40854 21.95845 7.11445 -74.19479 -9.81683 2.27587 2.19783 4.19836 21.40428 -19.69097 10.65107 -9.53849 -12.0603 0.86135 -4.54219 -12.47176 -14.02816 7.40913 7.63896 12.12952
-0.00014 0.95612 0.00234 181.1254 0 2.62729 5.82791 1.03327 -0.30388 -17.38113 3.36211 1.41716 10.61262 -14.77083 -3.30926 11.06956 81.118 0.39341 1.46143 10.38831 6.96209 24.74665 6.71908 -72.1116 -9.59963 1.87301 2.12849 4.09163 20.86149 -19.62181 10.66227 -9.61978 -12.18386 0.9372 -4.6271 -12.96086 -14.00495 7.32888 7.56659 12.02325
-0.00017 0.95624 0.00318 181.83582 0 2.67432 5.89498 1.07067 -0.54909 -17.32084 3.39212 1.19645 10.57242 -14.90882 -3.31748 10.88535 81.2086 0.38719 1.57046 10.53216 6.46465 28.32805 6.23099 -69.67913 -9.50341 1.49058 2.05834 3.97923 20.29643 -19.55219 10.66815 -9.71367 -12.32999 1.01919 -4.71789 -13.46859 -13.97774 7.24079 7.48733 11.9013
-0.00025 0.95633 0.00388 182.45771 0 2.71331 5.95769 1.10992 -0.72357 -17.24922 3.37308 1.02058 10.48147 -14.99731 -3.44162 10.71143 81.27784 0.36447 1.65004 10.62539 6.07435 30.2348 5.93919 -67.98625 -9.15455 1.06752 1.99015 3.87915 19.7795 -19.48415 10.68548 -9.78121 -12.42852 1.08817 -4.79595 -13.93565 -13.95945 7.17016 7.42295 11.8117
-0.0005 0.95637 0.00426 182.84624 0 2.72957 6.00795 1.1609 -0.7002 -17.12836 3.20242 0.95947 10.22967 -14.93423 -3.92119 10.55955 81.28726 0.29365 1.6433 10.56043 5.99047 27.34423 6.20324 -68.37787 -8.04606 0.49734 1.92429 3.80983 19.38228 -19.41487 10.73499 -9.77226 -12.39143 1.1212 -4.84122 -14.30533 -13.96253 7.14118 7.39728 11.81978
-0.00082 0.95638 0.0045 183.14365 0 2.73787 6.05408 1.21253 -0.60605 -17.00013 2.98493 0.94524 9.93102 -14.82376 -4.51128 10.4194 81.27532 0.20664 1.60756 10.44855 6.01294 22.79239 6.66277 -69.50893 -6.69275 -0.10829 1.86099 3.75357 19.03587 -19.34851 10.79634 -9.73772 -12.30718 1.14106 -4.87317 -14.63128 -13.97521 7.13127 7.38705 11.85878
-0.0011 0.9564 0.00479 183.47619 0 2.75016 6.10227 1.25972 -0.54566 -16.88566 2.79928 0.91536 9.66589 -14.74468 -5.02914 10.27744 81.27363 0.1285 1.58851 10.36894 5.97952 19.10808 7.0248 -70.27477 -5.4902 -0.67545 1.7983 3.69324 18.674 -19.28394 10.85154 -9.71689 -12.24699 1.16708 -4.90978 -14.96842 -13.9856 7.11649 7.37122 11.8785
-0.00138 0.95642 0.00517 183.83575 0 2.76075 6.14916 1.32471 -0.47781 -16.72358 2.56945 0.86153 9.34569 -14.62437 -5.64207 10.11928 81.26944 0.04367 1.55528 10.2396 5.97712 14.94556 7.42516 -71.1634 -4.12071 -1.33602 1.72775 3.62467 18.27905 -19.20479 10.9086 -9.68593 -12.17506 1.19263 -4.95252 -15.34357 -13.98721 7.0845 7.34931 11.92118
-0.0017 0.95644 0.00532 184.11666 0 2.77313 6.19844 1.35237 -0.40961 -16.66356 2.42003 0.86882 9.13343 -14.57821 -6.0804 9.99936 81.26563 -0.03065 1.54387 10.20713 5.9365 11.38872 7.78989 -71.9724 -3.04123 -1.81158 1.67466 3.57684 17.96625 -19.15851 10.96632 -9.67168 -12.11718 1.21571 -4.97901 -15.62737 -14.00942 7.09436 7.34387 11.92228
-0.00207 0.95645 0.00492 184.2088 0 2.79129 6.25012 1.28024 -0.34962 -16.84966 2.50846 1.03224 9.19554 -14.75238 -6.03569 9.96678 81.26598 -0.07558 1.60712 10.41774 5.75485 9.87362 8.02788 -72.37597 -2.81809 -1.75844 1.66468 3.5789 17.85721 -19.18636 11.00822 -9.69538 -12.10297 1.23782 -4.96678 -15.68563 -14.08596 7.20219 7.37908 11.81108
-0.00249 0.95646 0.00429 184.22365 0 2.81173 6.3057 1.16983 -0.29302 -17.14738 2.6787 1.25556 9.37604 -15.00192 -5.8078 9.9747 81.26781 -0.10857 1.69215 10.73548 5.53291 9.03204 8.21989 -72.67455 -2.89585 -1.51973 1.6728 3.60219 17.83078 -19.24994 11.05304 -9.73946 -12.10596 1.25726 -4.93811 -15.65075 -14.18299 7.35365 7.4306 11.65559
-0.00291 0.95646 0.00375 184.27007 0 2.83188 6.36241 1.07481 -0.24047 -17.41646 2.80845 1.45248 9.52332 -15.21453 -5.64513 9.97476 81.27037 -0.14485 1.76214 11.0261 5.33553 7.90679 8.41986 -73.02442 -2.83898 -1.37188 1.6759 3.61846 17.77391 -19.30787 11.1063 -9.78374 -12.10518 1.27637 -4.91511 -15.64771 -14.27067 7.49388 7.47523 11.51311
